<?xml version="1.0" encoding="UTF-8"?>
<svg width="506px" height="107px" viewBox="0 0 506 107" version="1.1" xmlns="http://www.w3.org/2000/svg" xmlns:xlink="http://www.w3.org/1999/xlink">
    <!-- Generator: Sketch 48.2 (47327) - http://www.bohemiancoding.com/sketch -->
    <title>Untitled</title>
    <desc>Created with Sketch.</desc>
    <defs></defs>
    <g id="Page-1" stroke="none" stroke-width="1" fill="none" fill-rule="evenodd">
        <g id="Group" transform="translate(166.000000, 2.000000)">
            <g id="ios-flower-outline" fill="#32A030" fill-rule="nonzero">
                <path d="M31.6054085,21.9594375 C36.4742277,21.9594375 39,20.947875 39,19.5217634 C39,18.0956518 36.4740536,17.0840022 31.6054085,17.0840022 C29.1041853,17.0840022 25.972346,17.7274152 23.5179576,18.3530692 C23.4330804,18.055433 23.3172991,17.7708549 23.1720938,17.5042969 C25.3492165,16.2113772 28.0161897,14.4530692 29.7835513,12.6856205 C33.2262589,9.24291295 34.3123393,6.72610714 33.3039978,5.71767857 C33.0648616,5.47845536 32.7405871,5.35710268 32.3395313,5.35710268 C31.0495714,5.35710268 28.9622009,6.61197991 26.3360558,9.238125 C24.5704353,11.0037455 22.8139554,13.6668013 21.5213839,15.8427924 C21.2548259,15.6951496 20.9703348,15.5762344 20.6721763,15.4891808 C21.2967857,13.0368817 21.9375,9.91261607 21.9375,7.41626786 C21.9376741,2.54770982 20.9261116,0 19.5,0 C18.0738884,0 17.0623259,2.54770982 17.0623259,7.41644196 C17.0623259,9.91279018 17.7032143,13.0370558 18.3277366,15.4893549 C18.0295781,15.5764085 17.7450871,15.6952366 17.478529,15.8429665 C16.1860446,13.6669754 14.4296518,11.0039196 12.6640313,9.23829911 C10.0380603,6.61232812 7.95060268,5.35727679 6.66046875,5.35727679 C6.25923884,5.35727679 5.93522545,5.47862946 5.69600223,5.71785268 C4.68757366,6.7261942 5.77382813,9.243 9.21644866,12.6857076 C10.9838973,14.4531562 13.6507835,16.2114643 15.8279062,17.5043839 C15.6827009,17.770942 15.5668326,18.0555201 15.4819554,18.3531563 C13.027567,17.7274152 9.89581473,17.0840893 7.39459152,17.0840893 C2.52594643,17.0840022 0,18.0738884 0,19.5 C0,20.9261116 2.52594643,21.9594375 7.39467857,21.9594375 C9.8998192,21.9594375 13.0374911,21.3141094 15.4936205,20.6874978 C15.5809353,20.9827835 15.6997634,21.2642277 15.8466228,21.5280871 C13.6661049,22.8219643 10.9889464,24.5853214 9.21653571,26.3577321 C5.77382813,29.8005268 4.68774777,32.3173326 5.69608929,33.3257612 C5.9353125,33.5649844 6.25941295,33.6863371 6.66046875,33.6863371 C7.95051563,33.6863371 10.0377991,32.4314598 12.6639442,29.8052277 C14.4382701,28.0309888 16.2034554,25.3500871 17.4976808,23.1684375 C17.7616272,23.3126853 18.0432455,23.4285536 18.3378348,23.513779 C17.7100915,25.9719978 17.0621518,29.1171563 17.0621518,31.6272589 C17.0623259,36.495817 18.0738884,39 19.5,39 C20.9261116,39 21.9376741,36.495817 21.9376741,31.6271719 C21.9376741,29.1170692 21.2899085,25.9719107 20.6621652,23.513692 C20.9568415,23.4284665 21.2382857,23.3125982 21.5022321,23.1683504 C22.7964576,25.3500871 24.5617299,28.0309018 26.3360558,29.8052277 C28.9619397,32.4311987 31.0494844,33.68625 32.3395313,33.68625 C32.7406741,33.68625 33.0646875,33.5648973 33.3039107,33.3256741 C34.3123393,32.3172455 33.2260848,29.8004397 29.7835513,26.3576451 C28.0110536,24.5853214 25.3338951,22.8219643 23.1533772,21.528 C23.3003237,21.2641406 23.4191518,20.9825223 23.5063795,20.6874107 C25.962596,21.3141094 29.1002679,21.9594375 31.6054085,21.9594375 Z M25.0707321,19.4078103 C27.694875,18.7972165 29.9364174,18.4768594 31.6053214,18.4768594 C33.4620871,18.4768594 35.039846,18.6340781 36.1677991,18.9314531 C37.012654,19.1542232 37.3869844,19.394317 37.5376741,19.5217634 C37.3869844,19.6491228 37.012654,19.8892165 36.1677991,20.1118996 C35.0397589,20.4092746 33.4620871,20.5665804 31.6053214,20.5665804 C29.9359821,20.5665804 27.6942656,20.2462232 25.0697746,19.6355424 L25.0707321,19.4078103 Z M27.3209799,10.2232232 C30.4011094,7.1430067 31.9071362,6.79226786 32.2671897,6.75448661 C32.2488214,6.95514509 32.1502768,7.39224107 31.7096987,8.14656027 C31.1189531,9.15812277 30.1122656,10.3871451 28.7987143,11.7007835 C27.6206183,12.8789665 25.8127768,14.235 23.5308415,15.6563237 C23.4769554,15.5999129 23.4220246,15.5446339 23.365875,15.4905737 C24.7869375,13.2085513 26.142971,11.4012321 27.3209799,10.2232232 Z M15.4692455,15.6562366 C13.1873103,14.235 11.3795558,12.8788795 10.2014598,11.7007835 C8.88782143,10.387058 7.88122098,9.15812277 7.29047545,8.14656027 C6.84989732,7.39224107 6.75126563,6.95505804 6.73298438,6.75439955 C7.09321205,6.79226786 8.59906473,7.14291964 11.6791942,10.2230491 C12.8572902,11.4011451 14.2131496,13.2085513 15.6342991,15.4903996 C15.5780625,15.5445469 15.5230446,15.5998259 15.4692455,15.6562366 Z M7.39467857,20.5665804 C5.53704241,20.5665804 3.95754241,20.4059665 2.82689063,20.1021496 C1.98342857,19.8754621 1.61153571,19.6325826 1.46232589,19.5040915 C1.61466964,19.3777768 1.99135045,19.1404688 2.83742411,18.9217902 C3.96276563,18.6307701 5.53860938,18.4769464 7.39476563,18.4769464 C9.0637567,18.4769464 11.3053862,18.7973036 13.9293549,19.4078973 L13.9302254,19.6355424 C11.3056473,20.2462232 9.06401786,20.5665804 7.39467857,20.5665804 Z M11.6791071,28.8203036 C8.59889062,31.900433 7.093125,32.2510848 6.73289732,32.2890402 C6.75117857,32.0883817 6.84981027,31.6512857 7.29038839,30.8968795 C7.88113393,29.885404 8.88773438,28.6564688 10.2013728,27.3426563 C11.3841696,26.1599464 13.2009777,24.7981674 15.4955357,23.3708371 C15.546375,23.4234174 15.598346,23.4750402 15.6512746,23.5257054 C14.2240313,25.8204375 12.8620781,27.6373326 11.6791071,28.8203036 Z M23.5044643,23.3708371 C25.7988482,24.7980804 27.6157433,26.1597723 28.7985402,27.3426563 C30.1122656,28.6564688 31.118779,29.885404 31.7095246,30.8968795 C32.1501897,31.6512857 32.2486473,32.0884688 32.2669286,32.2890402 C31.9067009,32.2510848 30.4008482,31.900433 27.3208058,28.8203036 C26.1378348,27.6372455 24.7758817,25.8201763 23.3485513,23.5257054 C23.401567,23.4751272 23.4535379,23.4233304 23.5044643,23.3708371 Z M18.9099509,2.84473661 C19.1317634,2.0000558 19.3710737,1.62119866 19.5,1.46633036 C19.6288393,1.62128571 19.8682366,2.0000558 20.0899621,2.84473661 C20.3875112,3.97773884 20.544817,5.55854464 20.544817,7.41644196 C20.544817,9.08064509 20.2262009,11.3147879 19.6188281,13.9298772 L19.3811719,13.9298772 C18.7737991,11.3147879 18.455096,9.08064509 18.455096,7.41644196 C18.455183,5.5586317 18.6124018,3.97773884 18.9099509,2.84473661 Z M20.0903973,36.1805089 C19.8667567,37.0255379 19.6256183,37.3952545 19.5,37.5416786 C19.3742946,37.3952545 19.1333304,37.0255379 18.9096027,36.1805089 C18.6123147,35.0574308 18.455183,33.4828929 18.455183,31.6269107 C18.455183,29.9530446 18.7773683,27.7037545 19.391183,25.0703839 L19.608817,25.0703839 C20.2227187,27.7037545 20.544817,29.9531317 20.544817,31.6269107 C20.544817,33.4828929 20.3876853,35.0574308 20.0903973,36.1805089 Z M19.5,22.2857143 C17.9615022,22.2857143 16.7142857,21.0384978 16.7142857,19.5 C16.7142857,17.9615022 17.9615022,16.7142857 19.5,16.7142857 C21.0384978,16.7142857 22.2857143,17.9615022 22.2857143,19.5 C22.2857143,21.0384978 21.0384978,22.2857143 19.5,22.2857143 Z" id="Shape"></path>
                <path d="M27.462006,32.6522001 C25.200392,31.0627973 23,28 23,28 C23,28 23.6482697,31.6923893 23.1709418,34.8297377 C24.2476725,36.7882985 25.5810004,38 26.5494864,38 C26.7107471,38 26.8659224,37.970863 27.014367,37.9122294 C28.1091693,37.4808407 28.3406876,35.6654466 27.462006,32.6522001 Z M26.4365394,36.5090693 C26.1840913,36.3777732 25.5691986,35.9363124 24.6854459,34.5063535 C24.7488806,33.7984334 24.7866833,33.0371856 24.7978397,32.2327719 C25.2599543,32.6716247 25.7149694,33.0814306 26.1575372,33.4569735 C26.6281344,35.2358564 26.5486566,36.1685087 26.4365394,36.5090693 Z" id="Shape"></path>
                <path d="M15.8324205,4.17707066 C14.6071917,2.05842277 13.422982,1 12.454653,1 C12.2934338,1 12.1383905,1.02928799 11.9898919,1.08795408 C10.8959244,1.52006452 10.6535887,3.17965702 11.5409855,6.35447475 C13.4999505,7.79454252 16,11 16,11 C16,11 15.2858977,7.32142889 15.8324205,4.17707066 Z M14.2063099,6.76892229 C13.7453282,6.33131472 13.2897849,5.92200384 12.8449343,5.54567574 C12.3763017,3.76757955 12.4556669,2.83477971 12.5676631,2.49404778 C12.8199541,2.62552831 13.4347808,3.0680022 14.3184904,4.50095073 C14.2551642,5.20728685 14.2176478,5.9666117 14.2063099,6.76892229 Z" id="Shape"></path>
                <path d="M4.1701656,23.1707155 C1.70419871,24.6007231 0.677776644,25.9746555 1.08775196,27.0154575 C1.34008596,27.6558943 2.06912081,28 3.23178166,28 C4.05748759,28 5.24919472,27.8562153 6.3497163,27.462675 C7.91488856,25.2552709 11,23 11,23 C11,23 7.28540245,23.564348 4.1701656,23.1707155 Z M5.54424386,26.1578219 C4.63706444,26.3981702 3.84382201,26.5243392 3.23169173,26.5243392 C2.86371213,26.5243392 2.62621602,26.4780403 2.4922254,26.4348772 C2.62504697,26.1807869 3.06838505,25.566912 4.49336176,24.6856658 C5.20126385,24.7492114 5.96258234,24.7870253 6.7670656,24.7981849 C6.32912311,25.2596979 5.91995714,25.7145703 5.54424386,26.1578219 Z" id="Shape"></path>
                <path d="M37.9122303,11.9846151 C37.6598304,11.3440388 36.930515,11 35.7674603,11 C34.9418984,11 33.8425284,11.1581841 32.6503298,11.5369957 C31.0233126,13.729805 28,16 28,16 C28,16 31.6679849,15.3285248 34.8288311,15.8294564 C37.2955325,14.3994355 38.3223128,13.0253095 37.9122303,11.9846151 Z M34.5055505,14.3143943 C33.7979131,14.250844 33.0369353,14.2132118 32.2327815,14.2020513 C32.6707485,13.7405043 33.0801114,13.2853216 33.4561028,12.8416684 C34.3628896,12.6016713 35.1557098,12.4756775 35.7675503,12.4756775 C36.135716,12.4756775 36.3731843,12.5219797 36.5073898,12.565146 C36.3744436,12.8192551 35.9308997,13.4332675 34.5055505,14.3143943 Z" id="Shape"></path>
                <path d="M11.4369378,33.0128422 C10.7036849,35.7761991 10.9182615,37.4700985 11.8936098,37.9029091 C12.0393895,37.9676667 12.1929198,38 12.3529814,38 C13.3202307,38 14.5037984,36.8046706 15.795264,34.4465271 C15.4309017,31.5119405 16,28 16,28 C16,28 14.1247188,30.8593548 11.4369378,33.0128422 Z M12.4685427,36.4945443 C12.3898182,36.2244021 12.2815719,35.4790061 12.6698825,33.8387526 C13.1965705,33.376159 13.7430268,32.8567317 14.3021103,32.2874838 C14.3103834,32.9231288 14.3339833,33.5340911 14.3726489,34.1126291 C13.4687101,35.7160865 12.7767353,36.3290526 12.4685427,36.4945443 Z" id="Shape"></path>
                <path d="M27.1112294,2.09685098 C26.9654016,2.03234423 26.8117336,2 26.6517934,2 C25.6843992,2 24.3688127,3.29803936 23.2084623,5.54450966 C23.6016922,7.62453437 23,12 23,12 C23,12 25.0244281,8.88132575 27.5596892,7.0069958 C28.2911803,4.1114604 28.0906453,2.53049988 27.1112294,2.09685098 Z M26.3276445,6.18121854 C25.8024378,6.64012502 25.2581533,7.15517962 24.7021086,7.7194774 C24.6940941,7.07786237 24.6703993,6.46150492 24.6313725,5.87794596 C25.5355224,4.2782694 26.2278996,3.66690895 26.5360197,3.50182618 C26.61538,3.77293624 26.7247944,4.52403104 26.3276445,6.18121854 Z" id="Shape"></path>
                <path d="M6.98102948,11.435612 C6.04946812,11.098777 4.92865625,11 4.17493925,11 C3.05558737,11 2.34612615,11.3112261 2.08707014,11.8937842 C1.63045999,12.9209261 2.99682299,14.505627 5.54978842,15.7965228 C8.26225715,15.454026 12,16 12,16 C12,16 8.60444102,13.5 6.98102948,11.435612 Z M3.49759768,12.4676318 C3.6236126,12.4315703 3.84206278,12.3937668 4.1750305,12.3937668 C4.70564362,12.3937668 5.38335018,12.488537 6.15394826,12.669454 C6.61721959,13.196352 7.13770407,13.7434584 7.70828427,14.3030208 C7.07328226,14.3113829 6.46291748,14.3349883 5.88476361,14.3735758 C4.27586068,13.4680325 3.66239343,12.7751124 3.49759768,12.4676318 Z" id="Shape"></path>
            </g>
            <text id="Edulis" font-family="SourceHanSans-Light, Source Han Sans" font-size="40" font-weight="300" fill="#1FAF4F">
                <tspan x="50.34" y="35">Edulis</tspan>
            </text>
        </g>
        <text id="A-configurable-front" font-family="SourceHanSans-ExtraLight, Source Han Sans" font-size="20" font-weight="300" fill="#767676">
            <tspan x="36.17" y="86">A configurable front-end scaffolding based on NEI</tspan>
        </text>
    </g>
</svg>